<svg>
<defs>
<path id="application" d="M936.243 713.472l-415.283 239.821c-5.606 3.251-12.339 3.251-17.843 0l-415.386-239.821c-5.606-3.302-8.934-9.216-8.934-15.514v-479.488c0-6.451 3.328-12.262 8.934-15.462l415.334-239.821c2.714-1.69 5.837-2.406 8.858-2.406h0.307c2.97 0 6.016 0.819 8.678 2.406l415.36 239.821c5.478 3.251 8.96 9.037 8.96 15.462v479.514c-0.026 6.298-3.507 12.186-8.986 15.488v0 0zM356.173 827.11l379.622-219.034-67.891-39.245-379.597 219.238 67.866 39.040zM685.798 399.334v138.598l67.814 39.066v-138.496l-67.814-39.168zM512.077 917.248l379.622-219.238-120.243-69.299-379.597 219.008 120.218 69.53zM252.698 767.437l379.469-219.213-120.243-69.427-379.546 219.136 120.32 69.504zM114.509 667.034l379.725-219.187v-438.374l-379.725 219.315v438.246zM529.869 9.6v438.246l120.090 69.35v-148.787c0-6.426 3.507-12.339 8.96-15.488 4.070-2.381 8.704-2.381 13.082-1.306 1.638 0.307 3.302 0.512 4.813 1.306l103.475 59.802c5.581 3.302 9.037 9.062 9.037 15.462v169.446l120.166 69.453v-438.298l-379.622-219.187z" />
<path id="eventgroup" d="M128.768 756.224v0c-0.051 0-0.077-0.026-0.077 0.026v-694.554c0 0.077 0.077 0.026 0.077 0.026h765.67c0.051 0 0.051 0 0.051-0.026v694.554c0-0.077-0.051-0.026-0.051-0.026h-765.67zM128.768 801.229v0h765.67c24.832 0 45.133-20.147 45.133-44.979v-694.554c0-24.858-20.173-45.030-45.133-45.030h-765.67c-24.806 0-45.133 20.147-45.133 45.030v694.554c0 24.832 20.224 44.979 45.133 44.979v0 0zM119.296 694.246v0h784.563v-35.661h-784.563v35.661zM279.808 872.55v0c9.882 0 17.843-7.962 17.843-17.766v-107.085c0-9.702-7.987-17.792-17.843-17.792-9.907 0-17.869 7.962-17.869 17.792v107.085c0 9.702 8.013 17.766 17.869 17.766v0 0zM743.347 872.55v0c9.984 0 17.894-7.962 17.894-17.766v-107.085c0-9.702-7.987-17.792-17.894-17.792-9.856 0-17.792 7.962-17.792 17.792v107.085c0.026 9.702 8.038 17.766 17.792 17.766v0 0zM391.629 587.273v0h61.619c12.826 0 22.707-10.163 22.707-22.682v-61.619c0-12.851-10.163-22.707-22.707-22.707h-61.619c-12.826 0-22.682 10.163-22.682 22.707v61.619c0 12.774 10.163 22.682 22.682 22.682v0 0zM569.984 587.273v0h61.568c12.774 0 22.707-10.163 22.707-22.682v-61.619c0-12.851-10.138-22.707-22.707-22.707h-61.568c-12.851 0-22.758 10.163-22.758 22.707v61.619c0 12.774 10.189 22.682 22.758 22.682v0 0zM748.262 587.273v0h61.645c12.749 0 22.656-10.163 22.656-22.682v-61.619c0-12.851-10.138-22.707-22.656-22.707h-61.645c-12.8 0-22.682 10.163-22.682 22.707v61.619c0 12.774 10.138 22.682 22.682 22.682v0 0zM213.325 408.943v0h61.619c12.8 0 22.682-10.138 22.682-22.682v-61.594c0-12.8-10.163-22.733-22.682-22.733h-61.619c-12.826 0-22.682 10.138-22.682 22.733v61.594c-0.026 12.8 10.138 22.682 22.682 22.682v0 0zM391.629 408.943v0h61.619c12.826 0 22.707-10.138 22.707-22.682v-61.594c0-12.8-10.163-22.733-22.707-22.733h-61.619c-12.826 0-22.682 10.138-22.682 22.733v61.594c0 12.8 10.163 22.682 22.682 22.682v0 0zM569.984 408.943v0h61.568c12.774 0 22.707-10.138 22.707-22.682v-61.594c0-12.8-10.138-22.733-22.707-22.733h-61.568c-12.851 0-22.758 10.138-22.758 22.733v61.594c0 12.8 10.189 22.682 22.758 22.682v0 0zM748.262 408.943v0h61.645c12.749 0 22.656-10.138 22.656-22.682v-61.594c0-12.8-10.138-22.733-22.656-22.733h-61.645c-12.8 0-22.682 10.138-22.682 22.733v61.594c0 12.8 10.138 22.682 22.682 22.682v0 0zM213.325 230.639v0h61.619c12.8 0 22.682-10.163 22.682-22.682v-61.645c0-12.774-10.163-22.682-22.682-22.682h-61.619c-12.826 0-22.682 10.138-22.682 22.682v61.645c-0.026 12.8 10.138 22.682 22.682 22.682v0 0zM391.629 230.639v0h61.619c12.826 0 22.707-10.163 22.707-22.682v-61.645c0-12.774-10.163-22.682-22.707-22.682h-61.619c-12.826 0-22.682 10.138-22.682 22.682v61.645c0 12.8 10.163 22.682 22.682 22.682v0 0zM569.984 230.639v0h61.568c12.774 0 22.707-10.163 22.707-22.682v-61.645c0-12.774-10.138-22.682-22.707-22.682h-61.568c-12.851 0-22.758 10.138-22.758 22.682v61.645c0 12.8 10.189 22.682 22.758 22.682v0 0z" />
<path id="device" d="M269.082 661.837l489.882-0.179-24.525 24.525v-490.419l24.525 24.55h-490.675l24.525-24.602 0.768 490.675-24.499-24.55zM269.107 710.912h-24.525l-0.026-24.474-0.768-490.65-0.051-24.602h539.802v539.546l-514.432 0.179zM512 272.051c94.848 0 171.699 76.851 171.699 171.699s-76.851 171.75-171.699 171.75-171.75-76.902-171.75-171.75 76.902-171.699 171.75-171.699v0 0zM512 321.101c-67.738 0-122.675 54.912-122.675 122.65s54.938 122.675 122.675 122.675c67.738 0 122.65-54.938 122.65-122.675s-54.912-122.65-122.65-122.65v0 0zM683.699 713.6v171.75h-49.050v-196.275h49.050v24.525zM389.325 713.6v171.75h-49.075v-196.275h49.075v24.525zM536.499 713.6v171.75h-49.024v-196.275h49.024v24.525zM683.699 26.701v171.75h-49.050v-196.301h49.050v24.55zM389.325 26.701v171.75h-49.075v-196.301h49.075v24.55zM536.499 26.701v171.75h-49.024v-196.301h49.024v24.55zM242.15 615.501h-171.75v-49.075h196.275v49.075h-24.525zM242.15 321.101h-171.75v-49.050h196.275v49.050h-24.525zM242.15 468.275h-171.75v-49.050h196.275v49.050h-24.525zM929.050 615.501h-147.2v-49.075h171.75v49.075h-24.55zM929.050 321.101h-147.2v-49.050h171.75v49.050h-24.55zM929.050 468.275h-147.2v-49.050h171.75v49.050h-24.55z" />
<path id="dashboard" d="M939.571 523.725c-24.090 56.576-56.678 105.498-97.613 146.611-40.832 41.114-89.626 73.754-145.971 97.997-56.627 24.294-116.045 36.454-178.022 36.454-62.003 0-121.37-12.16-177.946-36.454-56.397-24.218-105.165-56.883-146.048-97.997-40.934-41.088-73.472-90.010-97.587-146.586-24.192-56.781-36.301-116.378-36.301-178.586 0-89.498 24.038-172.262 72.038-247.782 10.342-15.846 26.035-24.269 44.774-24.269h682.163c18.688 0 34.432 8.422 44.646 24.090 48.179 76.058 72.218 158.746 72.218 247.962 0 62.208-12.186 121.779-36.352 178.56v0zM899.226 506.547c21.888-51.328 32.819-105.088 32.819-161.382 0-80.87-21.734-155.469-65.254-224.256-1.971-2.918-3.763-3.917-7.757-3.917h-682.163c-3.968 0-5.811 0.998-7.885 4.25-43.366 68.198-65.050 142.771-65.050 223.923 0 56.346 10.931 110.029 32.819 161.382 21.939 51.533 51.328 95.77 88.269 132.813 36.915 37.043 80.973 66.586 132.275 88.627 51.098 21.939 104.602 32.896 160.64 32.896 56.064 0 109.517-10.957 160.691-32.896 51.302-22.042 95.411-51.584 132.25-88.627 36.992-37.069 66.432-81.306 88.346-132.813v0zM489.472 686.49c8.064 8.090 17.126 11.853 28.467 11.853s20.454-3.763 28.467-11.853c8.090-8.090 11.93-17.254 11.93-28.698 0-11.469-3.814-20.608-11.904-28.723-8.013-8.090-17.126-11.878-28.467-11.878s-20.403 3.789-28.467 11.878c-8.064 8.090-11.853 17.254-11.853 28.723s3.763 20.608 11.827 28.698v0zM458.394 717.466c-16.256-16.307-24.627-36.608-24.627-59.674 0-23.040 8.371-43.341 24.627-59.699s36.557-24.781 59.571-24.781c22.963 0 43.29 8.448 59.597 24.781 16.256 16.333 24.678 36.634 24.678 59.699s-8.422 43.366-24.678 59.674c-16.307 16.358-36.634 24.806-59.597 24.806-23.014 0-43.315-8.448-59.571-24.806v0zM235.059 316.416c-8.090-8.090-17.152-11.878-28.518-11.878s-20.429 3.789-28.467 11.878c-8.064 8.115-11.827 17.254-11.827 28.749 0 11.443 3.763 20.634 11.827 28.749 8.038 8.038 17.101 11.802 28.467 11.802s20.48-3.738 28.493-11.802c8.064-8.115 11.853-17.306 11.853-28.749 0.026-11.494-3.789-20.608-11.827-28.749v0zM266.138 285.44c16.282 16.358 24.627 36.634 24.627 59.725 0 23.066-8.346 43.341-24.627 59.674-16.256 16.358-36.531 24.806-59.597 24.806-23.014 0-43.29-8.448-59.546-24.806-16.282-16.333-24.653-36.608-24.653-59.674 0-23.091 8.422-43.418 24.653-59.725 16.256-16.333 36.531-24.781 59.546-24.781 23.066 0.026 43.315 8.474 59.597 24.781v0zM328.499 535.296c-8.064-8.115-17.178-11.878-28.518-11.878-11.366 0-20.429 3.789-28.493 11.878s-11.827 17.254-11.827 28.698c0 11.469 3.763 20.634 11.827 28.749 8.064 8.090 17.126 11.853 28.493 11.853 11.341 0 20.454-3.763 28.518-11.853 8.064-8.115 11.827-17.28 11.827-28.749s-3.763-20.608-11.827-28.698v0zM359.552 504.32c16.282 16.333 24.653 36.634 24.653 59.674 0 23.066-8.371 43.366-24.653 59.699-16.282 16.358-36.531 24.806-59.571 24.806-23.014 0-43.264-8.448-59.571-24.781-16.282-16.307-24.627-36.634-24.627-59.725 0-23.040 8.346-43.366 24.627-59.674 16.282-16.358 36.531-24.781 59.571-24.781 23.040-0.026 43.29 8.422 59.571 24.781v0zM598.451 521.216l-53.094-201.574 12.8-8.755c12.518-8.474 21.402-19.789 26.906-34.15 5.53-14.259 6.195-28.621 2.253-43.699-5.069-19.507-15.821-33.715-33.178-43.75-17.382-10.138-35.098-12.621-54.477-7.552-19.277 4.992-33.408 15.821-43.443 33.229-10.112 17.459-12.518 35.354-7.526 54.861 3.994 15.027 11.699 27.085 23.373 36.659 11.802 9.728 24.96 15.053 39.936 16.282l15.462 1.306 3.942 15.027 49.126 186.624c0.768 2.842 2.022 4.531 4.531 5.99 2.33 1.357 3.994 1.587 6.298 0.947 2.688-0.742 4.275-2.022 5.811-4.557 1.485-2.458 1.766-4.557 1.101-7.501l0.179 0.614zM641.050 510.72c3.174 13.952 1.101 27.674-6.272 39.859-7.194 12.134-18.048 20.48-31.539 24.269-13.926 3.917-27.853 2.022-40.448-5.376-12.442-7.322-20.864-18.509-24.678-32.512l-49.152-186.701 21.222-5.606-1.869 21.888c-23.885-1.997-45.44-10.778-64.128-26.189-18.816-15.437-31.565-35.43-37.914-59.418-7.987-30.746-3.942-60.442 11.904-87.936 15.923-27.52 39.757-45.747 70.4-53.734 30.515-7.987 60.211-3.891 87.578 12.032 27.469 15.974 45.542 39.91 53.478 70.656 6.374 23.859 5.12 47.59-3.635 70.477-8.781 22.758-23.245 41.088-43.187 54.758l-12.314-18.15 21.171-5.581 49.382 187.264zM707.43 535.296c-8.013 8.090-11.802 17.254-11.802 28.698 0 11.469 3.763 20.634 11.802 28.749 8.064 8.090 17.101 11.853 28.544 11.853 11.315 0 20.403-3.763 28.467-11.853 8.090-8.115 11.878-17.28 11.878-28.749 0-11.443-3.763-20.582-11.878-28.723-8.064-8.090-17.152-11.853-28.467-11.853-11.443-0.026-20.48 3.763-28.544 11.878v0zM676.352 504.294c16.307-16.358 36.582-24.781 59.622-24.781 22.989 0 43.264 8.422 59.546 24.781 16.256 16.358 24.602 36.634 24.602 59.674 0 23.066-8.346 43.366-24.602 59.725-16.282 16.333-36.557 24.781-59.546 24.781-23.040 0-43.315-8.448-59.622-24.781-16.256-16.333-24.627-36.634-24.627-59.725 0-23.040 8.371-43.366 24.627-59.674v0zM857.882 316.416c-8.064-8.090-17.152-11.878-28.493-11.878-11.315 0-20.454 3.763-28.493 11.878-8.064 8.115-11.853 17.254-11.853 28.749 0 11.443 3.763 20.634 11.853 28.749 8.038 8.038 17.178 11.802 28.493 11.802 11.341 0 20.429-3.738 28.493-11.802 8.064-8.115 11.878-17.306 11.878-28.749 0-11.494-3.814-20.608-11.878-28.749v0zM888.96 285.44c16.307 16.358 24.627 36.634 24.627 59.725 0 23.066-8.346 43.341-24.627 59.674-16.333 16.358-36.582 24.806-59.571 24.806-23.091 0-43.315-8.448-59.622-24.806-16.154-16.333-24.602-36.608-24.602-59.674 0-23.091 8.448-43.418 24.653-59.725 16.256-16.333 36.48-24.781 59.571-24.781 22.989 0.026 43.238 8.474 59.571 24.781v0z" />
<path id="template" d="M127.334 715.341v0 0l353.254-174.131c14.029-6.938 44.749-6.938 58.778 0l353.254 174.131c0.128 0.077-1.075-0.845-3.302-3.533-5.171-6.272-8.781-15.437-8.781-25.984s3.61-19.661 8.781-25.882c2.202-2.662 3.405-3.558 3.302-3.507l-353.28 174.182c-14.029 6.938-44.774 6.938-58.778 0l-353.229-174.182c-0.102-0.026 1.101 0.845 3.302 3.558 5.197 6.272 8.781 15.437 8.781 25.984 0 10.573-3.584 19.61-8.781 25.882-2.202 2.662-3.43 3.584-3.302 3.482v0zM98.688 657.28c-32.051 15.795-32.102 41.395 0 57.242l353.254 174.157c32.026 15.795 83.917 15.821 116.019 0l353.203-174.157c32.026-15.795 32.128-41.37 0-57.242l-353.203-174.131c-32.051-15.795-83.917-15.821-116.019 0l-353.254 174.131zM46.208 512.128l391.629-193.075c40.909-20.147 103.475-20.045 144.307 0l391.859 193.075-28.621 58.086-391.885-193.075c-22.733-11.29-64.205-11.29-87.066 0l-391.603 193.075-28.621-58.086zM45.978 357.35l391.859-192.589c40.909-20.096 103.45-20.096 144.256 0l391.885 192.589-28.57 58.061-391.859-192.538c-22.784-11.238-64.282-11.238-87.168 0l-391.808 192.538-28.595-58.061zM45.978 203.443l391.808-192.896c40.909-20.096 103.501-20.096 144.358 0l391.834 192.896-28.595 58.010-391.885-192.794c-22.835-11.29-64.256-11.29-87.117 0l-391.808 192.794-28.595-58.010z" />
</defs></svg>